# xmcd
# 
# Track frame offsets:
#     150
#     13617
#     31475
#     45424
#     59916
#     72696
#     86808
#     101606
#     114433
#     130377
#     144798
# 
# Disc length: 2175
# 
# Revision: 1
# Processed by: cddbd v1.5.2PL0 Copyright (c) Steve Scherf et al.
# Submitted via: fre:ac v1.0.31
# 
DISCID=9d087d0b
DTITLE=ZZ Ward - The Storm
DYEAR=2017
DGENRE=Blues
TTITLE0=Ghost
TTITLE1=Cannonball Feat. Negrito
TTITLE2=Help Me Mama
TTITLE3=The Storm
TTITLE4=Domino Feat. Fitz
TTITLE5=Let It Burn
TTITLE6=Bag Of Bones
TTITLE7=She Ain't Me
TTITLE8=If U Stayed
TTITLE9=Hold On
TTITLE10=Ride Feat. Gary Clark Jr.
EXTD=
EXTT0=
EXTT1=
EXTT2=
EXTT3=
EXTT4=
EXTT5=
EXTT6=
EXTT7=
EXTT8=
EXTT9=
EXTT10=
PLAYORDER=
